# xmcd CD database file
#
# Track frame offsets:
#	182
#	13390
#	25897
#	39460
#	52802
#	68552
#	81732
#	97425
#	109612
#	123162
#	136452
#	151727
#	164420
#	207237
#	211742
#	233400
#	251062
#	270940
#	282067
#	296910
#	311102
#
# Disc length: 4531 seconds
#
# Revision: 0
# Processed by: cddbd v1.5.2PL0 Copyright (c) Steve Scherf et al.
# Submitted via: CDex 1.72
#
DISCID=2c11b115
DTITLE=Various Artist - Les Rois du Jazz (3/5)
DYEAR=1985
DGENRE=Jazz
TTITLE0=Take the "A" train - Duke Ellington
TTITLE1=Mood indigo - Duke Ellington
TTITLE2=Sentimental Lady - Duke Ellington
TTITLE3=Clementine - Duke Ellington
TTITLE4=John Hardy's Wife - Duke Ellington
TTITLE5=Jump for joy - Duke Ellington
TTITLE6=Solitude - Duke Ellington
TTITLE7=Sophisticated lady - Duke Ellington
TTITLE8=In a sentimental mood - Duke Ellington
TTITLE9=Rockin' in Rythm - Duke Ellington
TTITLE10=Flamingo - Duke Ellington
TTITLE11=Caravan - Duke Ellington
TTITLE12=Sing sing sing - Benny Goodman
TTITLE13=Good bye - Benny Goodman
TTITLE14=Don't be that way - Benny Goodman
TTITLE15=Oh Lady be good - Benny Goodman
TTITLE16=Stomping at the Savoy - Benny Goodman
TTITLE17=Both sides now - Benny Goodman
TTITLE18=Windy - Benny Goodman
TTITLE19=Watch what happens - Benny Goodman
TTITLE20=Bluesette - Benny Goodman
EXTD=YEAR: 1985
EXTT0=
EXTT1=
EXTT2=
EXTT3=
EXTT4=
EXTT5=
EXTT6=
EXTT7=
EXTT8=
EXTT9=
EXTT10=
EXTT11=
EXTT12=
EXTT13=
EXTT14=
EXTT15=
EXTT16=
EXTT17=
EXTT18=
EXTT19=
EXTT20=
PLAYORDER=
